<svg viewBox="0 0 40 40" fill="none" stroke="#currentColor" xmlns="http://www.w3.org/2000/svg">
<path d="M36 3H12V17H36V3Z" stroke-width="1.5" stroke-miterlimit="10" stroke-linecap="round" stroke-linejoin="round"/>
<path d="M24 14C26.2091 14 28 12.2091 28 10C28 7.79086 26.2091 6 24 6C21.7909 6 20 7.79086 20 10C20 12.2091 21.7909 14 24 14Z" stroke-width="1.5" stroke-miterlimit="10" stroke-linecap="round" stroke-linejoin="round"/>
<path d="M34 7C32.8 7 32 6.2 32 5" stroke-width="1.5" stroke-miterlimit="10" stroke-linecap="round" stroke-linejoin="round"/>
<path d="M14 13C15.2 13 16 13.8 16 15" stroke-width="1.5" stroke-miterlimit="10" stroke-linecap="round" stroke-linejoin="round"/>
<path d="M14 7C15.2 7 16 6.2 16 5" stroke-width="1.5" stroke-miterlimit="10" stroke-linecap="round" stroke-linejoin="round"/>
<path d="M34 13C32.8 13 32 13.8 32 15" stroke-width="1.5" stroke-miterlimit="10" stroke-linecap="round" stroke-linejoin="round"/>
<path d="M29 26.7L36.8 25C37.6 24.8 38.5 25.2 38.8 25.9C39.1 26.7 38.6 27.5 37.8 28L24.2 33.7C22 34.5 19.3 34.9 17 34.9C15.4 34.9 14.1 34.7 12.5 34.4L11 33.9" stroke-width="1.5" stroke-miterlimit="10" stroke-linecap="round" stroke-linejoin="round"/>
<path d="M11 35L8 37L1 24L4 22L11 35Z" stroke-width="1.5" stroke-miterlimit="10" stroke-linecap="round" stroke-linejoin="round"/>
<path d="M16.9999 29H26.4999C27.8999 29 28.9999 27.9 28.9999 26.5C28.9999 25.1 27.8999 24 26.4999 24H19.9999L19.0999 23.4C17.0999 21.9 14.5999 21 11.9999 21C10.3999 21 8.7999 21.3 7.2999 22L4.8999 23" stroke-width="1.5" stroke-miterlimit="10" stroke-linecap="round" stroke-linejoin="round"/>
</svg>
