<svg viewBox="0 0 40 40" fill="none" stroke="currentColor" xmlns="http://www.w3.org/2000/svg">
<path d="M9.8 8.99999C4.3 10.3 1 15.1 1 21C1 25.7 2.9 29.9 6 32C6.6 32.4 7 33.1 7 33.9V38.1H12V35.1C12 34.5 12.5 34.1 13 34.1H23C23.6 34.1 24 34.6 24 35.1V38.1H29V33.6C29 33 29.3 32.5 29.7 32.1C31.4 30.8 33.2 29.5 34.2 27.2C34.5 26.5 35.2 26.1 35.9 26.1H36C36.9 26.1 37.7 25.5 38 24.6L39 19.1C39 18.1 38.5 17.1 37.3 17.1H36.1C35.4 17.1 34.7 16.7 34.4 16.1C33.7 14.5 32.5 13.7 31.1 12.4V6.79999C31.1 6.19999 30.4 5.89999 30 6.29999L27.4 8.89999H26.1" stroke-width="1.5" stroke-miterlimit="10" stroke-linecap="round" stroke-linejoin="round"/>
<path d="M7.7999 13.9C6.0999 15.6 4.9999 18 4.8999 20.6" stroke-width="1.5" stroke-miterlimit="10" stroke-linecap="round" stroke-linejoin="round"/>
<path d="M17.5 13C20.5376 13 23 10.5376 23 7.5C23 4.46243 20.5376 2 17.5 2C14.4624 2 12 4.46243 12 7.5C12 10.5376 14.4624 13 17.5 13Z" stroke-width="1.5" stroke-miterlimit="10" stroke-linecap="round" stroke-linejoin="round"/>
<path d="M31 16V18" stroke-width="1.5" stroke-miterlimit="10" stroke-linecap="round" stroke-linejoin="round"/>
</svg>
